# xmcd
#
# Track frame offsets: 
#        150
#        15670
#        20913
#        42854
#        60808
#        83266
#        86960
#        102630
#        108020
#        133366
#        138424
#        156117
#        170929
#        198302
#        218392
#
# Disc length: 3078 seconds
#
# Revision: 0
# Processed by: cddbd v1.5.2PL0 Copyright (c) Steve Scherf et al.
# Submitted via: ExactAudioCopy v1.3
#
DISCID=c60c040f
DTITLE=John Blues Boyd - Through My Eyes
DYEAR=2019
DGENRE=Blues
TTITLE0=In My Blood
TTITLE1=My Memory, Pt. 1
TTITLE2=What My Eyes Have Seen
TTITLE3=I Heard the Blues Somewhere
TTITLE4=On the Run
TTITLE5=My Memory, Pt. 2
TTITLE6=Her Name Was Dona Mae
TTITLE7=My Memory, Pt. 3
TTITLE8=Why Did You Take That Shot
TTITLE9=My Memory, Pt. 4
TTITLE10=Oh California!
TTITLE11=That Singing Roofer
TTITLE12=Forty Nine Years
TTITLE13=I Got to Leave My Mark
TTITLE14=My Memory Takes Me There
EXTD=
EXTT0=
EXTT1=
EXTT2=
EXTT3=
EXTT4=
EXTT5=
EXTT6=
EXTT7=
EXTT8=
EXTT9=
EXTT10=
EXTT11=
EXTT12=
EXTT13=
EXTT14=
PLAYORDER=
